<?xml version="1.0" standalone="no"?>
<!DOCTYPE svg PUBLIC "-//W3C//DTD SVG 20010904//EN"
 "http://www.w3.org/TR/2001/REC-SVG-20010904/DTD/svg10.dtd">
<svg version="1.0" xmlns="http://www.w3.org/2000/svg"
 width="2084.000000pt" height="2084.000000pt" viewBox="0 0 2084.000000 2084.000000"
 preserveAspectRatio="xMidYMid meet">

<g transform="translate(0.000000,2084.000000) scale(0.100000,-0.100000)"
fill="currentColor" stroke="none">
<path d="M9690 17731 c-43 -14 -104 -48 -130 -72 -14 -13 -92 -114 -174 -224
-629 -845 -1417 -1703 -2696 -2935 -146 -140 -548 -525 -895 -855 -1157 -1102
-1892 -1826 -2455 -2418 -292 -307 -315 -341 -315 -471 0 -97 24 -159 88 -224
56 -58 111 -85 248 -121 357 -95 708 -138 1209 -148 651 -12 1205 34 2655 222
362 47 739 89 906 100 l96 7 6 -92 c10 -141 8 -876 -3 -1215 -6 -165 -26 -691
-45 -1170 -19 -478 -40 -1025 -47 -1215 -17 -466 -17 -1832 0 -2100 38 -610
84 -968 168 -1290 65 -247 112 -302 320 -370 388 -126 810 -208 1314 -255 230
-22 816 -31 1065 -16 600 35 1161 138 1566 288 118 44 183 90 225 161 54 90
58 145 24 345 -68 398 -112 884 -145 1592 -30 657 -39 1135 -65 3240 -14 1091
-29 1579 -65 1995 -8 90 -13 165 -12 166 1 1 79 7 172 13 94 7 438 34 765 61
945 78 1224 94 1870 111 423 10 574 9 1270 -12 364 -12 365 -11 422 10 79 31
148 95 182 171 25 56 28 71 24 154 l-3 92 -69 120 c-191 332 -497 747 -877
1189 -1680 1954 -4637 4363 -6264 5102 -141 64 -155 68 -230 70 -44 1 -91 -1
-105 -6z m320 -796 c437 -219 1187 -707 1835 -1194 1094 -821 2132 -1725 3085
-2687 469 -474 796 -833 1086 -1194 129 -161 264 -339 264 -348 0 -4 -168 -6
-372 -4 -759 7 -1371 -23 -2623 -128 -424 -35 -662 -52 -1090 -79 -161 -9
-206 -24 -279 -91 -99 -91 -123 -200 -83 -380 78 -350 101 -945 127 -3280 22
-1983 69 -3037 165 -3729 8 -58 15 -105 15 -107 0 -5 -165 -46 -296 -73 -385
-82 -738 -115 -1244 -115 -589 -1 -994 43 -1473 160 -219 54 -195 30 -231 227
-133 726 -147 1792 -51 4092 57 1368 70 1938 56 2356 -15 414 -39 622 -81 713
-27 55 -105 130 -168 159 -44 21 -61 22 -277 22 -317 -1 -517 -20 -1445 -140
-794 -102 -1120 -137 -1590 -171 -414 -30 -1177 -21 -1308 15 -26 8 -4 31 543
578 607 606 812 805 1650 1602 607 578 604 575 1225 1178 991 963 1735 1770
2289 2486 80 103 149 187 153 187 5 0 58 -25 118 -55z"/>
</g>
</svg>
