<?xml version="1.0" standalone="no"?>
<!DOCTYPE svg PUBLIC "-//W3C//DTD SVG 20010904//EN"
 "http://www.w3.org/TR/2001/REC-SVG-20010904/DTD/svg10.dtd">
<svg version="1.0" xmlns="http://www.w3.org/2000/svg"
 width="2084.000000pt" height="2084.000000pt" viewBox="0 0 2084.000000 2084.000000"
 preserveAspectRatio="xMidYMid meet">

<g transform="translate(0.000000,2084.000000) scale(0.100000,-0.100000)"
fill="currentColor" stroke="none">
<path d="M9780 17969 c-566 -38 -1125 -144 -1511 -286 -118 -44 -183 -90 -225
-161 -54 -90 -58 -145 -24 -345 68 -398 112 -884 145 -1592 30 -657 39 -1135
65 -3240 14 -1091 29 -1579 65 -1995 8 -90 13 -165 12 -166 -1 -1 -78 -7 -172
-13 -93 -7 -438 -34 -765 -61 -945 -78 -1224 -94 -1870 -111 -423 -10 -574 -9
-1270 12 -364 12 -365 11 -422 -10 -79 -31 -148 -95 -182 -171 -25 -56 -28
-71 -24 -154 l3 -92 69 -120 c191 -332 497 -747 877 -1189 1680 -1954 4632
-4359 6264 -5102 l150 -68 95 0 c83 0 101 4 145 27 72 37 84 51 249 273 629
845 1417 1703 2696 2935 146 140 548 525 895 855 1157 1102 1892 1826 2455
2418 292 307 315 341 315 471 0 97 -24 159 -88 224 -56 58 -111 85 -248 121
-357 95 -708 138 -1209 148 -651 12 -1205 -34 -2655 -222 -362 -47 -739 -89
-906 -100 l-96 -7 -6 92 c-10 141 -8 876 3 1215 6 165 26 692 45 1170 19 479
40 1025 47 1215 17 466 17 1832 0 2100 -38 610 -84 968 -168 1290 -65 247
-112 302 -320 370 -388 126 -806 207 -1314 256 -196 18 -915 27 -1120 13z
m1060 -674 c340 -31 587 -71 873 -141 219 -54 195 -30 231 -227 133 -726 147
-1792 51 -4092 -57 -1368 -70 -1938 -56 -2356 15 -414 39 -622 81 -713 27 -55
105 -130 168 -159 44 -21 61 -22 277 -22 317 1 517 20 1445 140 794 102 1120
137 1590 171 414 30 1177 21 1308 -15 26 -8 4 -31 -543 -578 -607 -606 -812
-805 -1650 -1602 -607 -578 -604 -575 -1225 -1178 -987 -959 -1728 -1763
-2274 -2468 -81 -104 -153 -194 -160 -199 -15 -10 -172 68 -398 197 -1145 657
-2659 1834 -4063 3157 -283 268 -904 894 -1114 1125 -199 219 -422 477 -557
645 -129 161 -264 339 -264 348 0 4 168 6 372 4 759 -7 1371 23 2623 128 424
35 662 52 1090 79 161 9 206 24 279 91 99 91 123 200 83 380 -78 350 -101 945
-127 3280 -22 1983 -69 3037 -165 3729 -8 58 -15 105 -15 107 0 5 165 46 296
73 245 52 596 96 924 115 147 8 763 -4 920 -19z"/>
</g>
</svg>
