<?xml version="1.0" standalone="no"?>
<!DOCTYPE svg PUBLIC "-//W3C//DTD SVG 20010904//EN"
 "http://www.w3.org/TR/2001/REC-SVG-20010904/DTD/svg10.dtd">
<svg version="1.0" xmlns="http://www.w3.org/2000/svg"
 width="2084.000000pt" height="2084.000000pt" viewBox="0 0 2084.000000 2084.000000"
 preserveAspectRatio="xMidYMid meet">

<g transform="translate(0.000000,2084.000000) scale(0.100000,-0.100000)"
fill="currentColor" stroke="none">
<path d="M11600 18682 c-71 -24 -126 -59 -172 -110 -48 -53 -68 -95 -106 -213
-229 -716 -300 -1672 -222 -2979 22 -360 47 -660 139 -1655 45 -482 67 -765
77 -997 l7 -158 -274 0 c-515 0 -1030 31 -2859 169 -1494 114 -2190 153 -3008
171 -1004 21 -1763 -30 -2262 -151 -150 -37 -220 -71 -282 -137 -60 -64 -74
-94 -142 -291 -208 -606 -329 -1258 -377 -2029 -16 -255 -6 -1012 15 -1242 48
-504 130 -938 245 -1290 61 -188 110 -253 240 -313 85 -40 151 -41 421 -5 828
111 2088 126 4870 58 1470 -36 1952 -43 2505 -36 297 3 599 10 670 15 72 5
131 8 133 6 1 -1 7 -117 12 -256 6 -140 24 -535 40 -879 44 -934 52 -1199 52
-1835 0 -722 -16 -1162 -64 -1795 -12 -157 -22 -337 -22 -400 -1 -109 1 -118
31 -182 40 -85 106 -151 191 -191 61 -29 76 -32 163 -32 96 0 97 0 200 52 683
341 1696 1120 2829 2176 283 263 1228 1210 1500 1502 1567 1681 2764 3237
3363 4370 59 110 120 236 138 279 29 74 31 86 27 175 -4 80 -9 105 -32 151
-39 76 -53 90 -297 285 -534 428 -979 828 -1563 1405 -733 725 -1249 1283
-2787 3016 -1229 1383 -1716 1916 -2435 2664 -483 503 -619 634 -688 666 -78
35 -197 42 -276 16z m720 -1559 c574 -604 1057 -1137 2185 -2408 683 -769
1055 -1184 1386 -1545 1055 -1153 1925 -2004 2711 -2653 108 -89 197 -164 197
-168 1 -3 -41 -79 -93 -170 -1174 -2064 -4336 -5503 -6441 -7005 -184 -132
-190 -135 -193 -109 -2 15 1 120 7 233 26 502 35 1184 23 1731 -13 561 -17
655 -57 1491 -36 736 -45 987 -45 1226 0 116 -5 236 -10 265 -23 122 -108 233
-217 285 -75 35 -188 44 -289 21 -189 -43 -646 -67 -1294 -67 -457 0 -924 9
-2225 40 -2158 52 -3352 55 -4195 10 -161 -9 -645 -45 -700 -53 -42 -6 -140
597 -169 1047 -14 203 -14 783 -1 991 38 595 141 1190 282 1635 l34 105 128
21 c133 23 343 47 556 65 196 16 1236 23 1597 10 742 -27 1422 -69 2888 -181
1613 -123 2093 -150 2676 -150 482 0 703 18 806 65 119 54 205 175 225 316 16
116 4 718 -21 1024 -12 143 -46 523 -76 845 -30 322 -64 695 -75 830 -89 1089
-93 1850 -14 2495 23 191 14 183 103 88 42 -45 182 -193 311 -330z"/>
</g>
</svg>
