<?xml version="1.0" standalone="no"?>
<!DOCTYPE svg PUBLIC "-//W3C//DTD SVG 20010904//EN"
 "http://www.w3.org/TR/2001/REC-SVG-20010904/DTD/svg10.dtd">
<svg version="1.0" xmlns="http://www.w3.org/2000/svg"
 width="2084.000000pt" height="2084.000000pt" viewBox="0 0 2084.000000 2084.000000"
 preserveAspectRatio="xMidYMid meet">

<g transform="translate(0.000000,2084.000000) scale(0.100000,-0.100000)"
fill="currentColor" stroke="none">
<path d="M9190 15877 c-48 -13 -135 -59 -315 -166 -932 -549 -2371 -1848
-3684 -3326 -1013 -1139 -1799 -2207 -2174 -2953 -86 -172 -92 -186 -95 -255
-4 -81 20 -161 62 -209 13 -14 103 -90 200 -168 717 -573 1431 -1268 2406
-2340 118 -129 502 -559 854 -955 1208 -1359 1597 -1783 2264 -2472 318 -327
344 -348 455 -360 107 -11 215 36 277 120 59 80 154 435 200 742 42 287 52
440 57 877 7 598 -6 853 -102 1903 -65 711 -85 967 -85 1094 l0 94 333 -6
c451 -8 741 -26 2129 -132 1360 -103 1996 -135 2683 -135 678 0 1101 34 1450
117 244 57 271 87 384 435 114 351 191 735 242 1198 16 151 22 284 26 591 7
507 -9 760 -73 1144 -41 246 -129 587 -174 675 -22 43 -93 111 -140 136 -46
25 -190 25 -360 2 -603 -84 -1716 -97 -3830 -43 -1160 30 -1802 37 -2197 25
-206 -6 -380 -12 -387 -13 -8 -1 -13 54 -18 188 -4 105 -16 381 -28 615 -65
1368 -64 2036 7 2970 25 330 24 373 -10 442 -65 132 -220 204 -357 165z m-281
-1038 c-5 -90 -12 -443 -16 -784 -6 -665 0 -924 43 -1790 14 -280 28 -663 32
-850 8 -336 8 -341 34 -396 28 -62 83 -121 143 -152 51 -27 175 -29 326 -5
200 33 496 41 1234 34 385 -3 1042 -15 1460 -26 954 -26 2526 -37 2960 -21
339 13 560 26 760 45 72 7 131 12 133 11 6 -5 62 -293 76 -395 65 -443 72
-1021 20 -1505 -37 -349 -95 -647 -186 -959 -24 -82 -37 -110 -52 -117 -68
-28 -428 -65 -781 -80 -643 -28 -1479 10 -3340 151 -1024 78 -1435 103 -1905
115 -226 7 -556 -6 -679 -26 -119 -19 -199 -79 -250 -189 l-26 -55 1 -310 c0
-329 5 -401 74 -1140 102 -1092 127 -1529 117 -2025 -7 -333 -41 -748 -63
-769 -4 -3 -41 30 -83 75 -706 747 -968 1035 -2002 2199 -328 369 -689 774
-804 900 -914 1011 -1640 1733 -2280 2270 -98 83 -192 162 -209 177 l-31 27
25 48 c14 26 69 122 124 213 927 1549 3119 3954 4739 5199 126 97 410 301 414
297 1 -1 -2 -76 -8 -167z"/>
</g>
</svg>
