<?xml version="1.0" standalone="no"?>
<!DOCTYPE svg PUBLIC "-//W3C//DTD SVG 20010904//EN"
 "http://www.w3.org/TR/2001/REC-SVG-20010904/DTD/svg10.dtd">
<svg version="1.0" xmlns="http://www.w3.org/2000/svg"
 width="352.000000pt" height="272.000000pt" viewBox="0 0 352.000000 272.000000"
 preserveAspectRatio="xMidYMid meet">
<metadata>
Created by potrace 1.16, written by Peter Selinger 2001-2019
</metadata>
<g transform="translate(0.000000,272.000000) scale(0.100000,-0.100000)"
fill="currentColor" stroke="none">
<path d="M1075 2410 c-44 -5 -98 -14 -120 -20 -22 -7 -62 -16 -90 -20 -82 -14
-195 -55 -195 -71 0 -4 -13 -10 -29 -14 -15 -3 -41 -19 -56 -35 -16 -17 -34
-30 -42 -30 -7 0 -18 -10 -24 -22 -13 -26 -56 -68 -68 -68 -4 0 -13 -10 -19
-22 -58 -121 -92 -198 -97 -223 -4 -16 -16 -58 -26 -91 -17 -51 -19 -80 -14
-170 8 -175 15 -214 46 -276 5 -10 9 -23 9 -30 0 -19 42 -100 62 -120 10 -10
18 -23 18 -30 0 -6 15 -26 33 -44 17 -19 41 -42 52 -54 107 -108 148 -132 365
-207 l115 -40 149 2 c90 2 152 7 159 14 6 6 25 11 43 11 18 0 47 8 66 17 18 9
42 21 53 26 111 57 221 140 260 198 14 22 29 39 34 39 5 0 21 -25 35 -55 26
-54 28 -55 140 -110 63 -30 118 -55 123 -55 5 0 19 -9 31 -21 30 -28 84 -49
125 -49 19 0 78 -16 133 -35 54 -19 106 -35 115 -35 28 0 231 -80 294 -116 50
-28 67 -32 99 -27 28 4 41 13 49 32 6 14 29 52 50 85 58 86 87 168 87 242 0
57 -2 64 -27 82 -32 22 -320 132 -347 132 -24 0 -386 137 -405 154 -9 7 -44
23 -79 36 -34 12 -79 36 -99 52 -43 33 -80 45 -96 29 -29 -29 -66 4 -53 47 9
29 -13 217 -35 297 -14 50 -56 151 -80 195 -5 8 -15 29 -22 45 -8 17 -24 39
-36 49 -11 11 -21 25 -21 32 0 7 -10 20 -21 28 -12 8 -29 28 -39 44 -10 16
-43 44 -74 62 -31 17 -70 43 -86 56 -40 34 -131 65 -220 74 -41 5 -91 11 -110
13 -19 3 -71 1 -115 -3z m250 -137 c112 -33 224 -94 270 -148 44 -52 41 -47
132 -186 12 -19 23 -42 23 -50 0 -9 3 -19 7 -23 9 -9 31 -76 45 -136 18 -81
20 -228 3 -286 -26 -89 -75 -187 -113 -228 -71 -74 -157 -156 -164 -156 -5 0
-26 -13 -47 -28 -21 -15 -65 -36 -97 -46 -32 -10 -75 -25 -94 -32 -43 -16
-125 -20 -245 -9 -157 13 -273 52 -340 115 -16 16 -49 42 -73 58 -24 16 -49
38 -55 50 -7 11 -33 48 -59 81 -27 34 -48 69 -48 79 0 10 -12 47 -26 83 -22
55 -26 84 -30 209 l-6 145 35 96 c44 119 60 152 90 176 12 10 35 35 51 56 16
20 33 37 39 37 6 0 20 9 31 19 31 28 136 81 160 81 12 0 26 4 31 9 12 12 83
30 152 40 29 4 54 9 57 11 2 3 49 5 103 4 68 0 119 -6 168 -21z m806 -979
c146 -59 589 -224 697 -260 46 -15 87 -34 92 -43 13 -25 -7 -110 -34 -151 -14
-19 -30 -48 -37 -63 -17 -38 -30 -36 -254 48 -99 37 -247 93 -330 123 -205 75
-317 121 -337 140 -25 21 -23 46 13 142 33 91 44 110 64 110 7 0 64 -21 126
-46z"/>
<path d="M1088 2205 c-3 -3 -30 -7 -59 -9 -91 -7 -133 -19 -249 -75 -59 -29
-80 -43 -100 -71 -11 -16 -30 -32 -41 -35 -26 -9 -94 -147 -119 -244 -31 -121
-25 -252 16 -334 8 -16 14 -39 14 -51 0 -38 105 -186 132 -186 4 0 9 -8 13
-19 8 -25 171 -108 260 -133 76 -21 280 -33 290 -17 4 5 18 9 32 9 22 0 49 11
103 41 8 5 29 15 45 22 17 8 36 21 44 30 7 10 17 17 22 17 5 0 34 25 64 54
107 107 178 292 167 436 -2 39 -9 73 -13 76 -5 3 -9 14 -9 26 0 11 -6 34 -14
51 -7 18 -19 51 -26 74 -7 24 -21 50 -32 59 -10 10 -18 23 -18 31 0 7 -9 22
-19 32 -11 11 -24 29 -30 40 -6 11 -33 35 -59 52 -26 18 -56 42 -68 54 -30 33
-136 63 -244 70 -53 3 -98 3 -102 0z m141 -124 c138 -33 252 -112 291 -202 5
-13 14 -31 19 -39 60 -105 84 -260 56 -357 -9 -32 -25 -74 -35 -94 -19 -35
-130 -150 -153 -158 -7 -2 -19 -12 -27 -22 -8 -11 -26 -21 -39 -24 -14 -2 -29
-9 -35 -15 -5 -5 -22 -10 -37 -10 -15 0 -31 -5 -34 -10 -4 -7 -50 -9 -123 -7
-104 3 -126 7 -200 36 -135 54 -229 161 -280 321 -6 19 -13 78 -14 130 -3 84
0 104 26 173 23 63 40 89 87 135 32 32 68 64 81 70 13 7 30 16 38 21 8 5 33
14 55 19 22 6 59 15 81 21 23 6 57 11 75 12 19 0 43 4 54 9 28 12 25 12 114
-9z"/>
</g>
</svg>
