<svg>
    <defs>

        <g id="flcIzq" 
            transform="translate(0.000000,2084.000000) scale(0.100000,-0.100000)"
            stroke="none">
<path d="M9190 15877 c-48 -13 -135 -59 -315 -166 -932 -549 -2371 -1848
-3684 -3326 -1013 -1139 -1799 -2207 -2174 -2953 -86 -172 -92 -186 -95 -255
-4 -81 20 -161 62 -209 13 -14 103 -90 200 -168 717 -573 1431 -1268 2406
-2340 118 -129 502 -559 854 -955 1208 -1359 1597 -1783 2264 -2472 318 -327
344 -348 455 -360 107 -11 215 36 277 120 59 80 154 435 200 742 42 287 52
440 57 877 7 598 -6 853 -102 1903 -65 711 -85 967 -85 1094 l0 94 333 -6
c451 -8 741 -26 2129 -132 1360 -103 1996 -135 2683 -135 678 0 1101 34 1450
117 244 57 271 87 384 435 114 351 191 735 242 1198 16 151 22 284 26 591 7
507 -9 760 -73 1144 -41 246 -129 587 -174 675 -22 43 -93 111 -140 136 -46
25 -190 25 -360 2 -603 -84 -1716 -97 -3830 -43 -1160 30 -1802 37 -2197 25
-206 -6 -380 -12 -387 -13 -8 -1 -13 54 -18 188 -4 105 -16 381 -28 615 -65
1368 -64 2036 7 2970 25 330 24 373 -10 442 -65 132 -220 204 -357 165z m-281
-1038 c-5 -90 -12 -443 -16 -784 -6 -665 0 -924 43 -1790 14 -280 28 -663 32
-850 8 -336 8 -341 34 -396 28 -62 83 -121 143 -152 51 -27 175 -29 326 -5
200 33 496 41 1234 34 385 -3 1042 -15 1460 -26 954 -26 2526 -37 2960 -21
339 13 560 26 760 45 72 7 131 12 133 11 6 -5 62 -293 76 -395 65 -443 72
-1021 20 -1505 -37 -349 -95 -647 -186 -959 -24 -82 -37 -110 -52 -117 -68
-28 -428 -65 -781 -80 -643 -28 -1479 10 -3340 151 -1024 78 -1435 103 -1905
115 -226 7 -556 -6 -679 -26 -119 -19 -199 -79 -250 -189 l-26 -55 1 -310 c0
-329 5 -401 74 -1140 102 -1092 127 -1529 117 -2025 -7 -333 -41 -748 -63
-769 -4 -3 -41 30 -83 75 -706 747 -968 1035 -2002 2199 -328 369 -689 774
-804 900 -914 1011 -1640 1733 -2280 2270 -98 83 -192 162 -209 177 l-31 27
25 48 c14 26 69 122 124 213 927 1549 3119 3954 4739 5199 126 97 410 301 414
297 1 -1 -2 -76 -8 -167z"/>
</g>

        <g id="flcDer" 
            transform="translate(0.000000,2084.000000) scale(0.100000,-0.100000)"
            stroke="none">
<path d="M11600 18682 c-71 -24 -126 -59 -172 -110 -48 -53 -68 -95 -106 -213
-229 -716 -300 -1672 -222 -2979 22 -360 47 -660 139 -1655 45 -482 67 -765
77 -997 l7 -158 -274 0 c-515 0 -1030 31 -2859 169 -1494 114 -2190 153 -3008
171 -1004 21 -1763 -30 -2262 -151 -150 -37 -220 -71 -282 -137 -60 -64 -74
-94 -142 -291 -208 -606 -329 -1258 -377 -2029 -16 -255 -6 -1012 15 -1242 48
-504 130 -938 245 -1290 61 -188 110 -253 240 -313 85 -40 151 -41 421 -5 828
111 2088 126 4870 58 1470 -36 1952 -43 2505 -36 297 3 599 10 670 15 72 5
131 8 133 6 1 -1 7 -117 12 -256 6 -140 24 -535 40 -879 44 -934 52 -1199 52
-1835 0 -722 -16 -1162 -64 -1795 -12 -157 -22 -337 -22 -400 -1 -109 1 -118
31 -182 40 -85 106 -151 191 -191 61 -29 76 -32 163 -32 96 0 97 0 200 52 683
341 1696 1120 2829 2176 283 263 1228 1210 1500 1502 1567 1681 2764 3237
3363 4370 59 110 120 236 138 279 29 74 31 86 27 175 -4 80 -9 105 -32 151
-39 76 -53 90 -297 285 -534 428 -979 828 -1563 1405 -733 725 -1249 1283
-2787 3016 -1229 1383 -1716 1916 -2435 2664 -483 503 -619 634 -688 666 -78
35 -197 42 -276 16z m720 -1559 c574 -604 1057 -1137 2185 -2408 683 -769
1055 -1184 1386 -1545 1055 -1153 1925 -2004 2711 -2653 108 -89 197 -164 197
-168 1 -3 -41 -79 -93 -170 -1174 -2064 -4336 -5503 -6441 -7005 -184 -132
-190 -135 -193 -109 -2 15 1 120 7 233 26 502 35 1184 23 1731 -13 561 -17
655 -57 1491 -36 736 -45 987 -45 1226 0 116 -5 236 -10 265 -23 122 -108 233
-217 285 -75 35 -188 44 -289 21 -189 -43 -646 -67 -1294 -67 -457 0 -924 9
-2225 40 -2158 52 -3352 55 -4195 10 -161 -9 -645 -45 -700 -53 -42 -6 -140
597 -169 1047 -14 203 -14 783 -1 991 38 595 141 1190 282 1635 l34 105 128
21 c133 23 343 47 556 65 196 16 1236 23 1597 10 742 -27 1422 -69 2888 -181
1613 -123 2093 -150 2676 -150 482 0 703 18 806 65 119 54 205 175 225 316 16
116 4 718 -21 1024 -12 143 -46 523 -76 845 -30 322 -64 695 -75 830 -89 1089
-93 1850 -14 2495 23 191 14 183 103 88 42 -45 182 -193 311 -330z"/>
        </g>

        <g id="flcArr" 
            transform="translate(0.000000,2084.000000) scale(0.100000,-0.100000)"
            fill="currentColor" stroke="none">
<path d="M9690 17731 c-43 -14 -104 -48 -130 -72 -14 -13 -92 -114 -174 -224
-629 -845 -1417 -1703 -2696 -2935 -146 -140 -548 -525 -895 -855 -1157 -1102
-1892 -1826 -2455 -2418 -292 -307 -315 -341 -315 -471 0 -97 24 -159 88 -224
56 -58 111 -85 248 -121 357 -95 708 -138 1209 -148 651 -12 1205 34 2655 222
362 47 739 89 906 100 l96 7 6 -92 c10 -141 8 -876 -3 -1215 -6 -165 -26 -691
-45 -1170 -19 -478 -40 -1025 -47 -1215 -17 -466 -17 -1832 0 -2100 38 -610
84 -968 168 -1290 65 -247 112 -302 320 -370 388 -126 810 -208 1314 -255 230
-22 816 -31 1065 -16 600 35 1161 138 1566 288 118 44 183 90 225 161 54 90
58 145 24 345 -68 398 -112 884 -145 1592 -30 657 -39 1135 -65 3240 -14 1091
-29 1579 -65 1995 -8 90 -13 165 -12 166 1 1 79 7 172 13 94 7 438 34 765 61
945 78 1224 94 1870 111 423 10 574 9 1270 -12 364 -12 365 -11 422 10 79 31
148 95 182 171 25 56 28 71 24 154 l-3 92 -69 120 c-191 332 -497 747 -877
1189 -1680 1954 -4637 4363 -6264 5102 -141 64 -155 68 -230 70 -44 1 -91 -1
-105 -6z m320 -796 c437 -219 1187 -707 1835 -1194 1094 -821 2132 -1725 3085
-2687 469 -474 796 -833 1086 -1194 129 -161 264 -339 264 -348 0 -4 -168 -6
-372 -4 -759 7 -1371 -23 -2623 -128 -424 -35 -662 -52 -1090 -79 -161 -9
-206 -24 -279 -91 -99 -91 -123 -200 -83 -380 78 -350 101 -945 127 -3280 22
-1983 69 -3037 165 -3729 8 -58 15 -105 15 -107 0 -5 -165 -46 -296 -73 -385
-82 -738 -115 -1244 -115 -589 -1 -994 43 -1473 160 -219 54 -195 30 -231 227
-133 726 -147 1792 -51 4092 57 1368 70 1938 56 2356 -15 414 -39 622 -81 713
-27 55 -105 130 -168 159 -44 21 -61 22 -277 22 -317 -1 -517 -20 -1445 -140
-794 -102 -1120 -137 -1590 -171 -414 -30 -1177 -21 -1308 15 -26 8 -4 31 543
578 607 606 812 805 1650 1602 607 578 604 575 1225 1178 991 963 1735 1770
2289 2486 80 103 149 187 153 187 5 0 58 -25 118 -55z"/>
        </g>

        <g id="flcAbj" 
            transform="translate(0.000000,2084.000000) scale(0.100000,-0.100000)"
            stroke="none">
<path d="M9780 17969 c-566 -38 -1125 -144 -1511 -286 -118 -44 -183 -90 -225
-161 -54 -90 -58 -145 -24 -345 68 -398 112 -884 145 -1592 30 -657 39 -1135
65 -3240 14 -1091 29 -1579 65 -1995 8 -90 13 -165 12 -166 -1 -1 -78 -7 -172
-13 -93 -7 -438 -34 -765 -61 -945 -78 -1224 -94 -1870 -111 -423 -10 -574 -9
-1270 12 -364 12 -365 11 -422 -10 -79 -31 -148 -95 -182 -171 -25 -56 -28
-71 -24 -154 l3 -92 69 -120 c191 -332 497 -747 877 -1189 1680 -1954 4632
-4359 6264 -5102 l150 -68 95 0 c83 0 101 4 145 27 72 37 84 51 249 273 629
845 1417 1703 2696 2935 146 140 548 525 895 855 1157 1102 1892 1826 2455
2418 292 307 315 341 315 471 0 97 -24 159 -88 224 -56 58 -111 85 -248 121
-357 95 -708 138 -1209 148 -651 12 -1205 -34 -2655 -222 -362 -47 -739 -89
-906 -100 l-96 -7 -6 92 c-10 141 -8 876 3 1215 6 165 26 692 45 1170 19 479
40 1025 47 1215 17 466 17 1832 0 2100 -38 610 -84 968 -168 1290 -65 247
-112 302 -320 370 -388 126 -806 207 -1314 256 -196 18 -915 27 -1120 13z
m1060 -674 c340 -31 587 -71 873 -141 219 -54 195 -30 231 -227 133 -726 147
-1792 51 -4092 -57 -1368 -70 -1938 -56 -2356 15 -414 39 -622 81 -713 27 -55
105 -130 168 -159 44 -21 61 -22 277 -22 317 1 517 20 1445 140 794 102 1120
137 1590 171 414 30 1177 21 1308 -15 26 -8 4 -31 -543 -578 -607 -606 -812
-805 -1650 -1602 -607 -578 -604 -575 -1225 -1178 -987 -959 -1728 -1763
-2274 -2468 -81 -104 -153 -194 -160 -199 -15 -10 -172 68 -398 197 -1145 657
-2659 1834 -4063 3157 -283 268 -904 894 -1114 1125 -199 219 -422 477 -557
645 -129 161 -264 339 -264 348 0 4 168 6 372 4 759 -7 1371 23 2623 128 424
35 662 52 1090 79 161 9 206 24 279 91 99 91 123 200 83 380 -78 350 -101 945
-127 3280 -22 1983 -69 3037 -165 3729 -8 58 -15 105 -15 107 0 5 165 46 296
73 245 52 596 96 924 115 147 8 763 -4 920 -19z"/>
        </g>

        <g id="bsq"
            transform="translate(0.000000,272.000000) scale(0.100000,-0.100000)"
            stroke="none">
<path d="M1075 2410 c-44 -5 -98 -14 -120 -20 -22 -7 -62 -16 -90 -20 -82 -14
-195 -55 -195 -71 0 -4 -13 -10 -29 -14 -15 -3 -41 -19 -56 -35 -16 -17 -34
-30 -42 -30 -7 0 -18 -10 -24 -22 -13 -26 -56 -68 -68 -68 -4 0 -13 -10 -19
-22 -58 -121 -92 -198 -97 -223 -4 -16 -16 -58 -26 -91 -17 -51 -19 -80 -14
-170 8 -175 15 -214 46 -276 5 -10 9 -23 9 -30 0 -19 42 -100 62 -120 10 -10
18 -23 18 -30 0 -6 15 -26 33 -44 17 -19 41 -42 52 -54 107 -108 148 -132 365
-207 l115 -40 149 2 c90 2 152 7 159 14 6 6 25 11 43 11 18 0 47 8 66 17 18 9
42 21 53 26 111 57 221 140 260 198 14 22 29 39 34 39 5 0 21 -25 35 -55 26
-54 28 -55 140 -110 63 -30 118 -55 123 -55 5 0 19 -9 31 -21 30 -28 84 -49
125 -49 19 0 78 -16 133 -35 54 -19 106 -35 115 -35 28 0 231 -80 294 -116 50
-28 67 -32 99 -27 28 4 41 13 49 32 6 14 29 52 50 85 58 86 87 168 87 242 0
57 -2 64 -27 82 -32 22 -320 132 -347 132 -24 0 -386 137 -405 154 -9 7 -44
23 -79 36 -34 12 -79 36 -99 52 -43 33 -80 45 -96 29 -29 -29 -66 4 -53 47 9
29 -13 217 -35 297 -14 50 -56 151 -80 195 -5 8 -15 29 -22 45 -8 17 -24 39
-36 49 -11 11 -21 25 -21 32 0 7 -10 20 -21 28 -12 8 -29 28 -39 44 -10 16
-43 44 -74 62 -31 17 -70 43 -86 56 -40 34 -131 65 -220 74 -41 5 -91 11 -110
13 -19 3 -71 1 -115 -3z m250 -137 c112 -33 224 -94 270 -148 44 -52 41 -47
132 -186 12 -19 23 -42 23 -50 0 -9 3 -19 7 -23 9 -9 31 -76 45 -136 18 -81
20 -228 3 -286 -26 -89 -75 -187 -113 -228 -71 -74 -157 -156 -164 -156 -5 0
-26 -13 -47 -28 -21 -15 -65 -36 -97 -46 -32 -10 -75 -25 -94 -32 -43 -16
-125 -20 -245 -9 -157 13 -273 52 -340 115 -16 16 -49 42 -73 58 -24 16 -49
38 -55 50 -7 11 -33 48 -59 81 -27 34 -48 69 -48 79 0 10 -12 47 -26 83 -22
55 -26 84 -30 209 l-6 145 35 96 c44 119 60 152 90 176 12 10 35 35 51 56 16
20 33 37 39 37 6 0 20 9 31 19 31 28 136 81 160 81 12 0 26 4 31 9 12 12 83
30 152 40 29 4 54 9 57 11 2 3 49 5 103 4 68 0 119 -6 168 -21z m806 -979
c146 -59 589 -224 697 -260 46 -15 87 -34 92 -43 13 -25 -7 -110 -34 -151 -14
-19 -30 -48 -37 -63 -17 -38 -30 -36 -254 48 -99 37 -247 93 -330 123 -205 75
-317 121 -337 140 -25 21 -23 46 13 142 33 91 44 110 64 110 7 0 64 -21 126
-46z"/>
<path d="M1088 2205 c-3 -3 -30 -7 -59 -9 -91 -7 -133 -19 -249 -75 -59 -29
-80 -43 -100 -71 -11 -16 -30 -32 -41 -35 -26 -9 -94 -147 -119 -244 -31 -121
-25 -252 16 -334 8 -16 14 -39 14 -51 0 -38 105 -186 132 -186 4 0 9 -8 13
-19 8 -25 171 -108 260 -133 76 -21 280 -33 290 -17 4 5 18 9 32 9 22 0 49 11
103 41 8 5 29 15 45 22 17 8 36 21 44 30 7 10 17 17 22 17 5 0 34 25 64 54
107 107 178 292 167 436 -2 39 -9 73 -13 76 -5 3 -9 14 -9 26 0 11 -6 34 -14
51 -7 18 -19 51 -26 74 -7 24 -21 50 -32 59 -10 10 -18 23 -18 31 0 7 -9 22
-19 32 -11 11 -24 29 -30 40 -6 11 -33 35 -59 52 -26 18 -56 42 -68 54 -30 33
-136 63 -244 70 -53 3 -98 3 -102 0z m141 -124 c138 -33 252 -112 291 -202 5
-13 14 -31 19 -39 60 -105 84 -260 56 -357 -9 -32 -25 -74 -35 -94 -19 -35
-130 -150 -153 -158 -7 -2 -19 -12 -27 -22 -8 -11 -26 -21 -39 -24 -14 -2 -29
-9 -35 -15 -5 -5 -22 -10 -37 -10 -15 0 -31 -5 -34 -10 -4 -7 -50 -9 -123 -7
-104 3 -126 7 -200 36 -135 54 -229 161 -280 321 -6 19 -13 78 -14 130 -3 84
0 104 26 173 23 63 40 89 87 135 32 32 68 64 81 70 13 7 30 16 38 21 8 5 33
14 55 19 22 6 59 15 81 21 23 6 57 11 75 12 19 0 43 4 54 9 28 12 25 12 114
-9z"/>
        </g>

        <g id="logo"
            transform="translate(0.000000,1387.000000) scale(0.100000,-0.100000)"
            stroke="none">
<path d="M6178 13271 c-75 -24 -118 -52 -172 -112 -75 -84 -136 -265 -136
-411 l0 -63 -32 55 c-75 130 -253 265 -416 317 -200 62 -398 -4 -478 -160 -31
-61 -40 -132 -25 -194 14 -54 35 -83 62 -83 9 0 41 11 71 25 29 14 71 25 93
25 49 0 102 -30 115 -66 24 -63 -80 -193 -188 -235 -119 -46 -332 -19 -515 66
-258 119 -489 95 -665 -70 -116 -107 -207 -262 -232 -392 l-13 -63 -50 46
c-137 123 -309 168 -497 130 -324 -66 -531 -267 -531 -518 0 -43 2 -82 5 -87
11 -17 -58 -95 -104 -118 -57 -29 -80 -29 -152 4 -72 32 -82 26 -68 -45 23
-124 121 -242 256 -309 71 -35 85 -38 158 -38 89 1 134 17 162 60 l15 24 42
-32 c23 -18 71 -46 107 -62 58 -27 76 -30 160 -30 81 0 103 4 150 26 110 52
168 126 177 226 6 72 -8 128 -47 182 -77 106 -203 118 -305 29 l-44 -39 -7 26
c-23 91 69 205 193 241 85 25 158 15 260 -36 148 -73 273 -187 375 -343 47
-71 47 -71 41 -32 -3 22 -19 92 -35 155 -46 178 -44 163 -17 155 43 -14 136
-8 176 11 48 24 51 44 18 117 -37 85 -32 151 16 196 13 12 33 21 46 21 64 0
165 -89 208 -181 84 -184 41 -409 -115 -603 -32 -40 -85 -94 -117 -121 -32
-27 -62 -52 -66 -55 -5 -4 27 3 71 16 165 47 315 53 442 18 59 -17 142 -56
179 -85 13 -11 27 -19 31 -19 4 0 32 33 62 73 166 220 218 376 218 653 l0 101
84 7 c118 10 212 38 338 102 90 47 118 67 175 128 158 170 264 429 249 611
l-6 70 28 -56 c43 -88 100 -155 207 -245 183 -155 283 -188 572 -188 l183 0
-63 -65 c-108 -112 -174 -222 -223 -371 -23 -72 -27 -102 -28 -200 0 -136 15
-202 79 -337 70 -149 155 -263 315 -424 156 -158 246 -225 374 -278 116 -48
197 -65 321 -64 94 0 122 4 190 27 245 84 395 271 395 491 0 167 -92 324 -235
398 -54 29 -69 32 -150 32 -79 0 -97 -3 -150 -29 -66 -33 -145 -107 -165 -155
-7 -17 -16 -31 -20 -31 -15 0 -33 58 -37 120 -7 93 21 162 100 247 174 186
386 233 645 142 249 -88 496 -253 673 -449 41 -45 91 -101 112 -124 l37 -41
-19 50 c-10 28 -32 84 -49 125 -16 41 -29 76 -28 77 1 2 38 -15 82 -37 241
-122 552 -117 745 13 34 23 70 46 79 51 17 9 304 406 298 412 -2 2 -26 -13
-54 -32 -185 -134 -470 -206 -629 -160 -48 14 -70 29 -120 79 -91 92 -118 190
-70 263 21 32 32 30 40 -7 9 -41 61 -98 110 -120 56 -26 112 -24 173 7 121 60
171 195 122 328 -58 154 -237 246 -422 216 -111 -19 -110 -19 -120 17 -17 66
-147 133 -257 133 -142 -1 -307 -81 -371 -180 -47 -73 -43 -80 41 -80 86 0
124 -19 158 -81 43 -75 43 -97 0 -184 l-37 -77 -21 40 c-69 135 -222 272 -408
366 -40 20 -73 42 -73 49 0 20 37 70 62 83 56 31 135 4 176 -60 35 -54 41 -57
71 -41 36 19 67 54 86 97 19 48 19 153 0 208 -8 24 -13 45 -11 47 2 2 22 -1
45 -7 28 -7 51 -23 73 -51 18 -23 42 -52 54 -67 29 -35 48 -24 69 39 25 75 17
176 -21 254 -38 79 -135 177 -211 213 -52 24 -69 27 -168 27 -95 0 -116 -3
-157 -23 -26 -13 -49 -22 -50 -20 -2 2 -37 -25 -77 -59 -41 -35 -78 -63 -83
-63 -4 0 -40 20 -79 44 -66 40 -75 43 -108 34 -119 -32 -229 -129 -257 -226
-9 -31 -22 -70 -29 -86 -25 -56 -4 -67 81 -41 66 20 100 19 150 -5 70 -35 74
-43 58 -129 -8 -41 -16 -76 -17 -78 -2 -2 -53 2 -113 8 -60 6 -153 9 -206 5
-54 -3 -98 -4 -98 -1 0 2 18 32 40 66 61 95 93 203 94 324 1 86 -2 107 -23
148 -58 118 -193 220 -309 234 -116 13 -257 -79 -296 -194 -21 -60 -20 -145 0
-186 42 -82 120 -132 195 -125 61 6 97 30 118 79 20 48 31 50 31 6 0 -74 -106
-185 -217 -227 -138 -52 -299 -34 -478 54 -180 89 -247 166 -249 286 -1 74 21
110 68 110 43 0 80 -29 99 -79 29 -71 70 -70 135 3 70 80 62 207 -19 300 -53
60 -108 91 -204 116 -96 25 -201 25 -277 1z"/>
<path d="M6282 12033 c-18 -9 -35 -26 -38 -39 -3 -13 -7 -24 -8 -24 0 0 -19 7
-41 15 -158 57 -322 -67 -275 -209 26 -81 127 -113 189 -60 17 14 31 32 31 40
0 19 16 18 24 -2 19 -49 -5 -108 -60 -150 -83 -64 -239 -34 -384 75 -29 22
-56 39 -58 37 -9 -9 48 -148 82 -199 60 -90 127 -136 230 -157 78 -16 157 -7
276 33 76 25 103 39 136 72 74 74 103 199 69 294 -13 37 -13 47 -1 76 18 43
65 68 111 59 40 -7 43 1 20 46 -46 88 -210 139 -303 93z"/>
<path d="M5283 11422 c-143 -46 -225 -166 -260 -377 -14 -82 -14 -96 0 -146
28 -94 110 -176 201 -200 62 -15 64 -16 82 -44 23 -36 22 -80 -4 -115 -27 -37
-27 -36 4 -44 40 -10 125 19 173 61 68 57 100 150 71 204 -9 16 -5 25 24 53
126 119 82 336 -67 336 -92 0 -152 -66 -127 -140 6 -19 14 -41 16 -47 8 -19
-27 -16 -55 3 -28 20 -61 88 -61 129 0 84 93 190 223 255 44 22 86 40 94 40
35 0 -3 20 -67 34 -88 20 -181 19 -247 -2z"/>
<path d="M8310 11233 c80 -305 151 -485 212 -539 20 -17 57 -40 83 -50 44 -16
50 -16 98 -1 29 9 80 18 115 20 49 3 71 9 104 33 59 41 88 87 88 138 0 62 -8
68 -87 70 -95 2 -135 28 -258 167 -110 124 -232 229 -324 278 -32 17 -61 31
-64 31 -3 0 12 -66 33 -147z"/>
<path d="M10080 11326 c-87 -18 -149 -54 -226 -130 -57 -57 -80 -90 -117 -166
-71 -147 -87 -205 -87 -312 0 -107 20 -197 80 -373 84 -244 172 -363 320 -437
109 -55 185 -72 300 -65 124 7 182 28 243 89 66 66 99 142 105 239 5 81 -4
109 -55 176 -60 78 -211 110 -301 64 -80 -41 -121 -145 -89 -224 17 -40 68
-77 105 -77 14 0 21 -4 16 -11 -4 -7 -27 -10 -59 -7 -100 8 -210 105 -255 225
-48 128 -30 378 36 490 77 132 268 155 233 28 -5 -16 -25 -44 -46 -62 -33 -28
-36 -34 -26 -56 15 -32 88 -67 139 -67 158 1 258 188 210 393 -38 162 -126
254 -274 286 -67 14 -181 13 -252 -3z"/>
<path d="M6034 11271 c-99 -25 -192 -101 -257 -208 -74 -121 -135 -311 -144
-449 -5 -79 1 -106 44 -185 2 -4 -10 -11 -26 -17 -47 -17 -117 -87 -141 -144
-18 -42 -21 -62 -16 -107 4 -31 7 -64 7 -73 0 -24 30 -23 74 3 85 50 179 42
249 -20 84 -76 174 -111 284 -111 95 0 139 17 198 75 78 77 107 198 68 280
-22 46 -42 62 -108 86 -46 16 -64 18 -94 9 -42 -11 -85 -51 -101 -92 -6 -16
-15 -28 -21 -28 -5 0 -27 22 -49 49 -91 116 -73 256 50 386 58 62 126 97 197
103 70 6 127 -17 182 -73 51 -52 80 -57 108 -17 68 98 53 250 -35 366 -43 56
-133 114 -226 146 -67 23 -193 34 -243 21z"/>
<path d="M1973 11094 c-88 -43 -153 -133 -169 -230 -8 -54 25 -132 76 -178
120 -108 305 -50 305 96 0 43 -4 53 -33 79 -18 16 -40 29 -50 29 -16 1 -16 1
0 10 27 16 93 -17 142 -71 103 -114 108 -284 15 -474 -33 -67 -54 -97 -86
-122 -67 -50 -160 -56 -183 -13 -15 29 4 66 50 95 47 30 49 43 15 84 -74 88
-229 52 -289 -67 -50 -99 -56 -227 -15 -322 54 -123 210 -198 389 -188 142 8
264 92 371 253 77 117 84 145 84 340 0 294 -45 448 -162 560 -136 130 -336
182 -460 119z"/>
<path d="M3190 10816 c-73 -16 -132 -48 -190 -102 -61 -57 -96 -123 -111 -209
-15 -93 -15 -314 0 -395 37 -193 161 -376 268 -396 18 -3 32 -9 30 -13 -29
-54 -40 -95 -41 -152 0 -108 26 -156 132 -240 21 -17 32 -6 57 55 13 32 36 71
51 87 37 39 117 71 157 64 44 -9 164 18 227 50 70 36 136 99 167 159 66 131 2
324 -123 372 -40 15 -52 16 -97 4 -73 -18 -105 -36 -127 -73 -22 -35 -26 -109
-10 -153 l11 -27 -59 6 c-161 14 -255 131 -255 317 0 113 28 188 92 251 59 57
114 74 210 65 77 -7 81 -4 81 62 -1 120 -122 232 -288 268 -79 16 -109 16
-182 0z"/>
<path d="M4313 10790 c-138 -31 -259 -102 -351 -206 -82 -91 -97 -131 -97
-254 0 -97 2 -110 31 -170 38 -80 84 -134 138 -163 63 -32 203 -31 269 3 90
46 147 129 147 215 0 145 -137 242 -247 175 -18 -11 -33 -16 -33 -11 0 23 47
62 98 81 47 18 73 21 148 18 82 -3 100 -8 170 -43 109 -53 213 -160 283 -289
100 -186 102 -294 8 -393 -39 -42 -77 -44 -107 -5 -20 24 -22 35 -17 99 l5 72
-33 10 c-77 21 -173 -29 -218 -112 -16 -32 -22 -59 -22 -117 0 -101 33 -170
129 -266 218 -218 489 -190 709 74 65 77 94 142 113 253 17 103 14 158 -17
282 -76 302 -171 413 -534 622 -131 75 -193 102 -290 126 -98 23 -175 23 -282
-1z"/>
<path d="M6694 10361 c-99 -102 -190 -200 -202 -217 -30 -43 -69 -167 -77
-244 -14 -143 36 -358 115 -490 56 -94 101 -142 186 -199 104 -70 191 -96 319
-96 91 1 106 4 166 32 138 64 245 204 323 423 90 251 18 488 -176 575 -67 30
-163 36 -220 12 -53 -22 -109 -77 -134 -132 -59 -126 0 -252 134 -288 23 -6
41 -16 39 -22 -2 -5 -21 -20 -43 -33 -111 -65 -295 31 -354 184 -19 49 -23 79
-23 174 -1 161 29 292 100 434 19 37 33 69 31 71 -2 1 -84 -82 -184 -184z"/>
<path d="M8775 10520 c-240 -48 -433 -253 -435 -461 0 -48 -28 -82 -95 -114
-68 -34 -116 -28 -181 21 -24 19 -48 34 -53 34 -15 0 -20 -27 -17 -87 7 -106
67 -217 164 -303 110 -98 276 -130 345 -66 l25 23 57 -53 c167 -158 395 -172
534 -33 56 56 75 112 69 198 -10 132 -86 211 -202 211 -59 0 -104 -16 -143
-53 l-23 -20 0 42 c0 52 18 89 64 128 86 77 229 94 336 41 137 -68 278 -223
368 -408 l56 -115 58 233 c57 233 57 233 42 280 -95 280 -648 566 -969 502z"/>
<path d="M2716 10178 c-4 -29 -13 -125 -21 -213 -40 -422 -92 -691 -160 -826
-32 -64 -130 -182 -194 -235 -137 -113 -265 -158 -394 -136 -136 24 -247 92
-292 183 -26 49 -45 135 -29 127 5 -2 36 -17 69 -33 54 -27 70 -30 155 -30 82
0 103 4 152 27 187 87 260 339 159 553 -53 115 -145 194 -283 243 -62 22 -90
26 -188 26 -100 0 -125 -4 -195 -28 -151 -52 -285 -157 -383 -299 -69 -100
-94 -153 -141 -300 -56 -176 -82 -317 -88 -479 -6 -154 5 -249 42 -359 80
-234 302 -419 603 -501 64 -18 107 -22 247 -22 148 -1 180 2 250 22 327 93
635 308 856 597 129 169 221 373 254 563 29 167 30 166 -109 483 -188 432
-298 684 -302 687 -1 2 -5 -20 -8 -50z"/>
<path d="M9836 9787 c-15 -61 -47 -195 -71 -295 l-44 -184 14 -81 c17 -97 87
-246 164 -348 71 -93 231 -244 333 -313 l87 -59 46 -131 c157 -439 281 -609
540 -737 168 -83 245 -102 420 -102 159 -1 242 15 342 64 156 75 283 299 283
496 0 101 -20 157 -86 236 -93 114 -190 160 -334 159 -170 0 -287 -93 -321
-253 -30 -137 66 -268 196 -269 37 0 38 -1 22 -17 -13 -14 -34 -18 -81 -18
-169 1 -378 187 -446 398 -6 21 -10 41 -7 43 3 3 34 12 68 20 35 8 106 35 158
60 77 38 108 60 175 127 134 134 172 241 163 462 -6 144 -30 253 -89 412 -47
124 -90 193 -173 277 -113 114 -230 166 -378 166 -166 0 -309 -84 -369 -218
-32 -70 -31 -209 0 -277 28 -60 73 -109 127 -138 31 -17 58 -22 115 -22 72 0
91 6 183 53 14 7 6 -53 -12 -94 -24 -52 -90 -108 -160 -136 -42 -16 -79 -21
-151 -22 -90 -1 -99 1 -175 37 -198 95 -405 401 -476 704 -10 47 -23 92 -27
99 -5 9 -19 -29 -36 -99z"/>
<path d="M681 8648 c-134 -81 -201 -286 -143 -437 21 -52 21 -57 5 -110 -31
-109 -12 -241 44 -303 15 -17 15 -22 0 -69 -10 -28 -17 -66 -17 -83 0 -126
120 -269 231 -277 82 -6 98 -1 118 39 25 50 46 66 108 87 93 30 140 1 183
-112 58 -152 -19 -345 -170 -427 -59 -32 -142 -44 -192 -27 l-35 12 19 37 c36
68 11 174 -55 242 -114 118 -306 103 -379 -28 -65 -118 -41 -263 70 -411 79
-105 181 -159 346 -183 105 -15 207 5 323 62 182 90 307 228 349 385 38 142
-14 426 -107 582 -44 72 -123 155 -177 182 -40 21 -42 23 -42 69 -1 79 -29
123 -169 261 -170 166 -198 223 -204 426 -3 108 -4 110 -28 113 -14 2 -47 -11
-78 -30z"/>
<path d="M3122 8640 c-78 -145 -227 -336 -348 -449 -69 -64 -244 -191 -263
-191 -5 0 -11 -82 -14 -182 -7 -203 -23 -300 -66 -394 -39 -84 -73 -106 -171
-112 -129 -7 -200 28 -200 100 0 56 54 110 140 140 56 20 65 27 68 50 7 58
-65 155 -140 191 -285 135 -588 -163 -588 -578 0 -148 31 -244 112 -346 112
-142 378 -264 603 -276 90 -5 112 -2 219 26 208 54 288 103 457 278 178 185
270 345 330 580 43 169 54 269 53 483 0 276 -43 526 -112 654 -33 62 -56 69
-80 26z"/>
<path d="M9894 8550 c30 -496 58 -760 107 -1005 93 -471 233 -773 464 -1000
163 -161 307 -256 440 -290 194 -49 329 -49 479 0 261 85 447 245 507 434 41
133 21 326 -51 480 -95 201 -230 304 -405 305 -68 1 -88 -3 -137 -27 -67 -33
-121 -91 -142 -155 -25 -72 -16 -87 66 -107 78 -20 123 -52 145 -103 20 -47 4
-82 -50 -113 -36 -21 -55 -24 -139 -24 -96 0 -97 0 -132 34 -69 66 -114 209
-146 459 -11 84 -20 154 -20 156 0 2 -21 9 -47 16 -124 31 -266 148 -371 305
-58 86 -159 287 -189 374 -16 47 -31 64 -128 149 -60 53 -143 125 -184 161
l-73 66 6 -115z"/>
<path d="M4890 8262 c-23 -11 -43 -33 -60 -67 l-25 -49 0 -881 c0 -860 0 -881
20 -920 21 -41 75 -85 106 -85 25 0 74 44 93 85 9 19 23 86 31 148 16 129 21
147 43 147 22 0 91 -76 164 -183 98 -144 154 -197 206 -197 22 0 81 55 93 88
23 61 2 106 -196 409 -74 114 -135 214 -135 222 0 9 38 61 85 116 149 176 179
264 179 515 0 186 -14 262 -66 370 -39 82 -149 193 -234 237 -114 61 -238 79
-304 45z m269 -357 c16 -14 43 -52 58 -83 27 -55 28 -63 28 -207 0 -131 -3
-156 -21 -195 -46 -99 -122 -143 -145 -82 -12 31 -18 547 -7 575 11 25 52 21
87 -8z"/>
<path d="M6055 8238 c-74 -21 -185 -159 -226 -282 -18 -53 -34 -156 -45 -291
-5 -73 -4 -83 18 -114 31 -44 68 -66 101 -57 45 11 89 125 108 278 14 121 35
184 74 226 33 36 35 37 102 36 87 0 129 -22 161 -84 21 -43 22 -53 22 -320 -1
-272 -7 -351 -29 -373 -6 -6 -31 -11 -54 -10 -176 6 -214 4 -282 -17 -89 -28
-129 -49 -191 -98 -257 -203 -200 -630 102 -773 83 -40 165 -47 288 -24 l96
17 46 -29 c94 -58 114 -66 139 -55 13 6 32 26 42 44 17 31 18 82 18 828 0 933
-2 967 -73 1043 -15 15 -49 34 -77 43 -63 20 -285 28 -340 12z m119 -1199 c51
-14 133 -91 147 -139 6 -20 10 -77 8 -127 -4 -79 -7 -94 -33 -131 -15 -23 -45
-54 -65 -69 -31 -24 -47 -28 -114 -32 -113 -5 -155 13 -206 90 -43 65 -56 119
-49 200 5 44 12 57 54 100 54 55 98 86 153 105 45 16 56 17 105 3z"/>
<path d="M7914 8241 c-55 -14 -103 -51 -148 -114 -93 -132 -122 -226 -133
-440 l-6 -122 42 -38 c24 -21 51 -37 65 -37 51 0 96 105 120 278 26 184 55
243 128 263 55 15 141 -1 176 -33 52 -49 56 -67 60 -308 2 -124 -1 -268 -6
-320 -8 -80 -13 -97 -33 -113 -20 -16 -32 -18 -79 -11 -352 53 -655 -215 -602
-532 15 -93 68 -196 134 -262 65 -66 115 -96 193 -116 74 -20 129 -20 229 -1
86 17 106 14 151 -20 86 -64 132 -67 162 -12 17 30 18 88 21 792 4 923 -3
1024 -70 1087 -16 15 -53 35 -81 44 -58 18 -273 28 -323 15z m111 -1205 c50
-21 101 -63 126 -103 18 -29 22 -50 22 -137 0 -61 -5 -112 -13 -125 -19 -36
-81 -101 -111 -117 -41 -21 -175 -19 -219 4 -104 52 -166 255 -103 340 34 46
136 122 183 137 59 18 74 18 115 1z"/>
<path d="M7023 8045 c-107 -54 -151 -156 -172 -402 -16 -177 -9 -167 -159
-229 -47 -19 -62 -38 -62 -78 0 -31 27 -50 95 -67 87 -21 101 -32 109 -86 3
-26 11 -214 16 -417 11 -387 19 -483 44 -521 31 -47 112 -40 136 13 17 39 29
183 30 362 1 245 18 569 32 598 10 21 29 31 87 49 40 12 82 30 92 39 44 40 10
91 -82 123 -111 38 -119 54 -118 226 1 143 14 196 53 210 43 15 79 -30 101
-130 21 -95 46 -125 103 -125 71 0 100 61 81 167 -15 79 -59 161 -114 212 -91
84 -179 102 -272 56z"/>
<path d="M1885 6491 l-110 -26 -6 -55 c-7 -68 -28 -109 -86 -171 -71 -76 -143
-87 -195 -31 -39 42 -48 66 -48 131 l0 61 -58 0 c-47 0 -67 -6 -103 -29 -52
-32 -105 -106 -122 -168 -6 -24 -15 -43 -19 -43 -4 0 -20 18 -35 41 -23 36
-26 50 -25 114 2 97 -9 106 -73 63 -101 -69 -145 -160 -145 -303 0 -188 93
-332 257 -396 48 -18 79 -22 183 -23 l124 -1 35 -81 34 -82 59 -18 c114 -34
236 -20 313 37 22 16 55 38 73 50 51 34 42 53 -39 84 -78 30 -123 77 -135 141
-6 32 -2 38 84 121 96 94 158 181 193 272 32 80 32 205 0 284 -12 31 -28 57
-34 56 -7 0 -61 -13 -122 -28z"/>
<path d="M5107 6403 c-12 -12 -8 -188 5 -201 18 -18 152 -16 168 3 8 10 9 19
3 28 -5 6 -40 49 -77 95 -63 77 -83 92 -99 75z"/>
<path d="M3963 6234 c-130 -48 -251 -238 -320 -504 -32 -122 -41 -364 -24
-635 26 -401 79 -568 227 -718 108 -109 186 -128 353 -86 l82 21 82 -41 c45
-23 90 -41 99 -41 81 0 94 71 104 560 l7 335 66 32 c73 35 151 103 151 132 0
27 -82 98 -127 110 -65 16 -311 24 -406 11 -146 -18 -207 -55 -207 -124 0 -60
41 -94 155 -126 l60 -17 -2 -144 c-3 -242 -31 -337 -123 -423 -66 -62 -98 -63
-139 -2 -42 61 -79 148 -102 241 -40 159 -35 780 6 940 27 101 109 216 181
250 52 24 79 10 193 -105 106 -107 142 -125 186 -96 32 21 38 50 33 145 -8
136 -69 215 -211 270 -80 31 -258 39 -324 15z"/>
<path d="M10755 6159 c-74 -156 -84 -306 -26 -424 37 -75 94 -129 184 -173 69
-34 223 -79 234 -69 7 8 -7 38 -49 106 -36 57 -35 68 1 41 52 -36 112 -53 196
-53 44 0 98 5 120 13 59 19 174 108 207 160 92 144 88 353 -7 428 -37 29 -51
28 -58 -7 -9 -44 -56 -91 -122 -122 -102 -49 -146 -40 -229 47 -28 29 -50 37
-218 78 -103 25 -190 46 -193 46 -3 0 -21 -32 -40 -71z"/>
<path d="M5206 6129 c-151 -36 -262 -227 -311 -541 -23 -141 -30 -479 -16
-664 33 -411 82 -604 183 -719 83 -94 136 -104 256 -50 168 75 255 293 298
745 35 378 -13 857 -107 1062 -40 85 -107 150 -173 167 -51 13 -75 13 -130 0z
m75 -269 c44 -24 73 -121 90 -296 16 -174 7 -758 -15 -889 -32 -195 -68 -275
-126 -275 -86 0 -114 215 -108 835 4 384 5 403 27 470 48 146 79 183 132 155z"/>
<path d="M2342 5953 c-394 -1005 -506 -1959 -301 -2574 90 -274 226 -474 528
-783 372 -378 827 -745 1366 -1101 811 -535 1569 -878 2140 -967 116 -18 490
-15 649 6 424 55 783 166 1201 371 623 305 1158 713 1904 1450 297 293 369
378 438 510 115 224 164 469 164 825 0 457 -90 936 -284 1520 l-72 215 -12
-190 c-40 -618 -151 -1070 -326 -1330 -151 -223 -643 -601 -1219 -936 l-128
-74 -1 -220 c-1 -121 -4 -282 -8 -359 l-6 -138 -85 306 c-46 168 -86 306 -90
306 -3 0 -22 -75 -44 -168 -85 -371 -109 -463 -116 -455 -4 4 -24 80 -45 168
-20 88 -40 164 -43 169 -3 6 -144 -366 -257 -683 -3 -8 -8 -12 -11 -9 -2 3
-17 112 -33 242 -15 129 -29 238 -32 240 -2 3 -35 -129 -73 -292 -38 -163 -72
-304 -77 -312 -5 -8 -9 152 -9 365 l-1 380 -269 -535 c-148 -294 -269 -531
-269 -526 -1 10 278 956 285 967 2 4 -45 -9 -104 -28 -108 -34 -309 -79 -318
-71 -14 15 -28 141 -28 258 1 156 20 274 70 429 19 57 34 105 34 107 0 2 -9 4
-19 4 -12 0 -24 -13 -34 -37 -8 -21 -64 -137 -124 -258 l-108 -220 -5 235 -5
234 -95 -127 c-52 -70 -97 -127 -100 -127 -4 0 -35 64 -70 143 -67 150 -84
180 -75 132 15 -83 73 -470 70 -473 -2 -2 -28 43 -58 100 -150 283 -188 351
-182 323 42 -187 55 -295 55 -445 0 -107 -15 -279 -26 -289 -7 -8 -251 20
-342 39 -48 10 -88 17 -90 15 -1 -1 34 -19 78 -39 l80 -38 39 -126 c135 -431
251 -817 249 -824 -2 -4 -113 207 -248 470 -134 262 -257 500 -272 527 l-28
50 6 -380 c3 -239 2 -374 -4 -365 -5 8 -43 152 -83 319 l-74 304 -27 -244
c-15 -134 -27 -250 -27 -258 -1 -8 -4 -12 -7 -9 -3 4 -65 164 -138 357 l-132
351 -44 -186 c-24 -101 -47 -179 -50 -172 -4 7 -40 151 -81 321 -40 169 -76
307 -79 307 -3 0 -40 -134 -84 -298 -43 -163 -82 -301 -87 -307 -5 -5 -9 98
-9 240 0 138 -3 300 -7 362 l-6 112 -160 91 c-444 254 -957 594 -1275 847
-142 113 -317 293 -386 397 -176 267 -300 644 -356 1084 -29 223 -43 572 -32
777 5 94 8 171 6 173 -1 2 -33 -77 -72 -175z"/>
<path d="M5745 6110 c-28 -31 -34 -179 -34 -880 -1 -636 9 -962 29 -1000 16
-29 48 -43 86 -35 73 13 79 49 99 555 22 571 36 693 90 799 29 58 67 91 105
91 88 0 111 -149 145 -925 16 -356 25 -468 44 -518 12 -31 45 -50 71 -42 48
15 64 101 80 425 29 599 72 899 144 994 56 73 125 55 154 -42 18 -60 31 -248
42 -637 18 -600 28 -677 93 -698 37 -12 81 7 97 41 21 45 29 211 29 582 1 359
-7 514 -34 672 -38 225 -128 338 -281 354 -82 9 -132 -8 -201 -65 -110 -92
-124 -92 -206 -7 -55 57 -69 65 -120 77 -51 11 -71 10 -149 -5 -50 -9 -93 -15
-96 -11 -3 3 -9 49 -12 103 -7 103 -24 150 -62 176 -32 23 -91 20 -113 -4z"/>
<path d="M8078 6097 c-62 -18 -92 -39 -108 -76 -16 -40 -6 -77 30 -111 36 -33
86 -48 186 -56 137 -10 153 -25 140 -129 -6 -57 -111 -477 -219 -880 -164
-612 -172 -707 -63 -755 58 -26 213 -44 323 -36 173 11 253 64 253 167 0 26
-3 55 -6 64 -10 26 -57 44 -160 60 -53 9 -113 23 -132 31 l-35 14 6 73 c6 63
111 495 291 1192 24 94 49 211 56 262 12 85 11 94 -7 124 -29 50 -75 60 -308
65 -146 3 -213 0 -247 -9z"/>
<path d="M7403 6004 c-129 -47 -240 -281 -285 -599 -7 -52 -12 -182 -12 -305
1 -173 5 -237 22 -330 46 -253 108 -406 200 -498 74 -74 146 -112 222 -119
134 -12 277 106 319 265 18 66 16 207 -3 237 -25 38 -53 49 -81 31 -24 -16
-43 -51 -96 -180 -41 -101 -84 -146 -140 -146 -52 0 -76 24 -127 126 -50 100
-79 192 -91 296 -6 46 -18 145 -27 221 l-16 138 28 31 c50 51 76 59 233 69
173 11 243 23 265 48 35 39 46 211 22 366 -25 163 -81 278 -161 333 -36 24
-50 27 -135 29 -65 2 -108 -2 -137 -13z m169 -181 c43 -47 87 -198 89 -309 2
-49 -2 -60 -21 -76 -41 -33 -250 -19 -293 20 -32 28 -18 113 37 226 76 156
133 198 188 139z"/>
</g>

    </defs>
</svg>